<svg xmlns="http://www.w3.org/2000/svg" viewBox="0 0 503 503"><defs><style>.cls-1{fill:#d97706;stroke:#d97706;stroke-miterlimit:10;stroke-width:10px;}</style></defs><g id="Calque_6" data-name="Calque 6"><path class="cls-1" d="M253.42,141.54l7-79.4-.11-1.21H246.49v0h0L214.63,429.6h0v0l-6.18-1.51c-3.14-.76-6.27-1.54-9.39-2.31q-.12,6.81-.23,13.64c1.89.71,3.92,1.4,6.1,2,3,.88,5.88,1.54,8.51,2v0c4.52,1,9.08,1.79,13.65,2.43l1.19-13.79h0Q240.86,286.82,253.42,141.54Z" transform="translate(-1 -1)"/></g><g id="Calque_5" data-name="Calque 5"><path class="cls-1" d="M430.92,78.3a231.72,231.72,0,0,0-78-52.95C322,12.51,288.24,6,252.5,6A246.5,246.5,0,0,0,78.2,426.8,246.5,246.5,0,0,0,499,252.5C499,185.48,474.82,123.61,430.92,78.3ZM252.5,481C126.5,481,24,378.49,24,252.5S126.5,24,252.5,24C384.9,24,481,120.1,481,252.5,481,378.49,378.5,481,252.5,481Z" transform="translate(-1 -1)"/><path class="cls-1" d="M430.94,174a200.53,200.53,0,0,0-55.66-72.44v0Q369.8,97.09,364,93l-5.83,12.85h0l-103.8,228h0l-.72,1.59-.67-1.47h0l-104.27-229h0L142.87,92q-5.79,4.11-11.27,8.59v0A200.64,200.64,0,0,0,75.92,173,194.08,194.08,0,0,0,60.46,281.34C72.73,365,135.55,409.69,164.88,426.25v0c5.73,3.14,10.21,5.29,12.89,6.51l0-133.71h0V285.2h-61V299H164l0,110.56a221.2,221.2,0,0,1-30.65-23C100.1,356.68,80.2,320.61,74.15,279.33c-9-61.45,15.14-123.78,62.32-164.72L244.56,352l0,0L253.61,372l8.61-18.93,0,0L370.4,115.56c47.17,40.95,71.33,103.28,62.32,164.73-6.05,41.28-26,77.35-59.14,107.21a221.2,221.2,0,0,1-30.65,23.05l0-110.56h47.16V286.15h-61V300h0l.05,133.71c2.68-1.22,7.16-3.38,12.88-6.51v0C371.31,410.65,434.13,366,446.41,282.3A194,194,0,0,0,430.94,174Z" transform="translate(-1 -1)"/></g><g id="Calque_7" data-name="Calque 7"><path class="cls-1" d="M308.63,440.33l-.45-14.53c-3.16.91-6.43,1.8-9.78,2.65q-3.13.8-6.18,1.5l-31.86-369h0l-6.93,80.28,25.16,291.47h0l1.18,13.64q6.87-1,13.66-2.44v0c1.43-.31,2.85-.63,4.27-1l1.82-.44,2.41-.62C303,441.54,304.88,441.09,308.63,440.33Z" transform="translate(-1 -1)"/></g></svg>